<?xml version="1.0" encoding="utf-8"?>
<!-- Generator: Adobe Illustrator 27.0.0, SVG Export Plug-In . SVG Version: 6.00 Build 0)  -->
<svg version="1.1" id="Layer_1" xmlns="http://www.w3.org/2000/svg" xmlns:xlink="http://www.w3.org/1999/xlink" x="0px" y="0px"
	 viewBox="0 0 612 792" style="enable-background:new 0 0 612 792;" xml:space="preserve">
<style type="text/css">
	.st0{fill:#5EA6DA;}
</style>
<path d="M134.24,299.78v111.91h-29.17v-30.93l0.64-24.71l-28.06,28.54h-2.07l-27.9-28.54l0.48,24.71v30.93H18.98V299.78h11.8
	l45.91,48.31l45.75-48.31H134.24z"/>
<path d="M273.41,299.78v111.91h-29.17v-30.93l0.64-24.71l-28.06,28.54h-2.07l-27.97-32.51l0.55,28.68v30.93h-29.17V299.78h11.8
	l45.91,48.31l45.75-48.31H273.41z"/>
<path d="M326.5,300.1v111.6h-29.17V300.1H326.5z"/>
<path d="M457.06,356.69c0,11.37-2.31,21.34-6.93,29.89c-4.62,8.56-11.19,15.17-19.69,19.85c-8.5,4.68-18.44,7.01-29.81,7.01
	c-10.84,0-20.51-2.44-29.01-7.33c-8.5-4.89-15.15-11.69-19.93-20.41c-4.78-8.71-7.17-18.65-7.17-29.81c0-11.16,2.39-21.1,7.17-29.81
	c4.78-8.71,11.42-15.52,19.93-20.41c8.5-4.89,18.17-7.33,29.01-7.33c13.6,0,25.05,3.32,34.36,9.96c9.3,6.64,15.65,16.13,19.05,28.46
	h-30.61c-2.34-3.83-5.21-6.62-8.61-8.37c-3.4-1.75-7.76-2.63-13.07-2.63c-8.19,0-14.8,2.76-19.85,8.29
	c-5.05,5.53-7.57,12.81-7.57,21.84c0,9.04,2.6,16.32,7.81,21.84c5.21,5.53,12.01,8.29,20.41,8.29c5.74,0,10.73-1.33,14.99-3.99
	c4.25-2.66,7.33-6.27,9.25-10.84h-25.35v-24.23h55C456.85,351.43,457.06,354.67,457.06,356.69z"/>
<path d="M48.15,184.81v227.07H18.98V184.81H48.15z"/>
<path class="st0" d="M236.71,363.58v0.8l-21.34,21.87L109.91,262.41H94.29v34.44H65.12v-111.6h47.51c8.29,0,15.65,1.65,22.08,4.94
	c6.43,3.3,11.45,7.92,15.07,13.87c3.61,5.95,5.42,12.81,5.42,20.57c0,6.7-1.59,12.81-4.78,18.33c-3.19,5.53-7.65,9.94-13.39,13.23
	L236.71,363.58z M94.29,237.7h16.9c4.57,0,8.13-1.22,10.68-3.67c2.55-2.44,3.82-5.79,3.82-10.04c0-4.25-1.28-7.57-3.82-9.96
	c-2.55-2.39-6.11-3.59-10.68-3.59h-16.9V237.7z"/>
<path class="st0" d="M262.17,270.26v26.14h-71.1v-111.6h69.67v25.99h-40.65v16.58h37.46v25.51h-37.46v17.38H262.17z"/>
<path class="st0" d="M351.77,270.26v26.14h-69.51v-111.6h29.17v85.45H351.77z"/>
<path class="st0" d="M395.45,184.81v111.6h-29.17v-111.6H395.45z"/>
<path class="st0" d="M490.46,270.26v26.14h-71.1v-111.6h69.67v25.99h-40.65v16.58h37.46v25.51h-37.46v17.38H490.46z"/>
<path class="st0" d="M539.72,210.95v17.86h35.71v25.67h-35.71v41.93h-29.17v-111.6h69.67v26.14H539.72z"/>
</svg>
